HIERARCHY
ROOT pelvis
{
  OFFSET 0 100 0
  CHANNELS 6 Xposition Yposition Zposition Zrotation Xrotation Yrotation
  JOINT pelvis_right_femur
  {
    OFFSET -10.78128 -3.44521 -0.5502486
    CHANNELS 3 Zrotation Xrotation Yrotation
    JOINT right_femur_tibia
    {
      OFFSET -0.8047443 -44.0398 -0.1307829
      CHANNELS 3 Zrotation Xrotation Yrotation
      JOINT right_tibia_foot
      {
        OFFSET 3.006224 -47.83518 -5
        CHANNELS 3 Zrotation Xrotation Yrotation
        End Site
        {
          OFFSET 0 -5 15
        }
      }
    }
  }
  JOINT pelvis_left_femur
  {
    OFFSET 10.78128 -3.44521 -0.5502486
    CHANNELS 3 Zrotation Xrotation Yrotation
    JOINT left_femur_tibia
    {
      OFFSET 0.8047443 -44.0398 -0.1307829
      CHANNELS 3 Zrotation Xrotation Yrotation
      JOINT left_tibia_foot
      {
        OFFSET -4.370144 -48.10324 -4.275266
        CHANNELS 3 Zrotation Xrotation Yrotation
        End Site
        {
          OFFSET 0 -5 15
        }
      }
    }
  }
  JOINT pelvis_spine1
  {
    OFFSET 0 6.468898 -3.129235
    CHANNELS 3 Zrotation Xrotation Yrotation
    JOINT spine1
    {
      OFFSET 0 23.15396 4.99043
      CHANNELS 3 Zrotation Xrotation Yrotation
      JOINT spine2
      {
        OFFSET 0 20.79997 -5.064912
        CHANNELS 3 Zrotation Xrotation Yrotation
        JOINT neck
        {
          OFFSET 0 14.38658 9.616178
          CHANNELS 3 Zrotation Xrotation Yrotation
          End Site
          {
            OFFSET 0 20 0
          }
        }
      }
      JOINT right_manubrium
      {
        OFFSET -5.722621 16.35077 3.967754
        CHANNELS 3 Zrotation Xrotation Yrotation
        JOINT right_clavicle
        {
          OFFSET -13.16364 1.694482 -4.693211
          CHANNELS 3 Zrotation Xrotation Yrotation
          JOINT right_humerus
          {
            OFFSET -28.5034 -0.3100689 -2.792744
            CHANNELS 3 Zrotation Xrotation Yrotation
            JOINT right_radius
            {
              OFFSET -25.15693 0.02248979 -1.271978
              CHANNELS 3 Zrotation Xrotation Yrotation
              End Site
              {
                OFFSET -15 0 0
              }
            }
          }
        }
      }
      JOINT left_manubrium
      {
        OFFSET 5.722621 16.35077 3.967754
        CHANNELS 3 Zrotation Xrotation Yrotation
        JOINT left_clavicle
        {
          OFFSET 13.16364 1.694482 -4.693211
          CHANNELS 3 Zrotation Xrotation Yrotation
          JOINT left_humerus
          {
            OFFSET 29.39168 -1.063119 -2.237045
            CHANNELS 3 Zrotation Xrotation Yrotation
            JOINT left_radius
            {
              OFFSET 24.59957 -0.9528479 0.9047498
              CHANNELS 3 Zrotation Xrotation Yrotation
              End Site
              {
                OFFSET 15 -0 -0
              }
            }
          }
        }
      }
    }
  }
}
MOTION
Frames: 9
Frame Time: 0.0416666666667
40.33225 101.0357 282.6022 1.398187 -7.564906 0.6680597 1.805477 17.858 7.358461 -0 34.23106 -0 3.756399 -7.798386 -1.584714 -1.344819 -22.05036 -4.015502 -0 22.91592 -0 -6.167125 -7.107237 18.54359 -0.3220529 0.07076403 9.788325 -2.816496 9.45 -1.648357 2.572124 20.8133 4.528965 1.630833 -16.91276 7.15934 -0.9283954 -22.22431 10.32142 83.68722 17.68428 -9.812071 -0 0 28.42196 -26.42779 9.718892 13.90526 4.972337 -12.94934 -2.96518 -95.59894 24.40119 28.77064 0 0 -7.077697 -5.376107 0.07664578 19.67933
41.77831 101.6703 290.1658 1.800848 -8.20624 1.549063 0.2881519 15.90828 6.618832 -0 42.05218 -0 2.406236 -8.306555 -2.998324 -2.828079 -17.70145 -4.987264 -0 24.54308 -0 -5.554518 -8.006976 18.42539 -0.8231997 -0.2129125 9.352848 -2.739427 9.527043 -1.767197 2.693298 21.11881 4.444712 1.494308 -16.80983 7.33201 -0.1848517 -21.24693 10.18992 84.42689 17.71698 -10.96842 -0 0 26.41637 -25.86499 9.813027 13.22779 4.798756 -13.21617 -3.073787 -94.41371 24.88645 27.34809 0 0 -7.330351 -5.115801 0.183847 19.55377
43.1528 102.5856 297.275 2.428149 -9.075151 2.534423 0.4312651 12.19215 5.513883 -0 49.9589 -0 0.8310447 -8.43896 -4.38207 -4.253814 -12.72072 -5.821018 -0 24.99908 -0 -4.823522 -9.624902 18.18655 -1.327614 0.04772606 8.562015 -2.731103 9.696684 -2.002333 2.621138 21.52289 4.497682 1.247624 -16.58538 7.532856 0.7545247 -20.36075 10.28834 85.43587 18.00214 -12.20084 -0 0 24.09165 -25.14054 10.00884 12.48175 4.50765 -13.9736 -3.347669 -92.63788 25.45346 24.95015 0 0 -8.212905 -4.61792 0.3981868 19.14774
44.27469 104.0099 303.765 2.447823 -9.964165 3.609881 0.7245521 6.338451 4.942538 -0 54.7356 -0 -0.774722 -9.396919 -5.608496 -4.899368 -6.971965 -6.284607 -0 24.1088 -0 -4.304636 -11.07196 17.92386 -1.321684 0.7465913 7.328222 -2.463814 9.880827 -2.515399 2.485945 22.20549 4.623379 0.9669016 -16.14174 7.789041 1.476711 -19.69985 10.34418 86.52412 18.42925 -13.39121 -0 0 21.95533 -24.38331 10.23941 11.84064 4.265445 -15.03066 -3.702823 -90.48959 26.00608 21.74472 0 0 -9.695376 -3.908574 0.7048315 18.54197
45.42191 105.4362 309.6691 2.402924 -10.48528 4.902432 1.132615 -0.01934361 4.582778 -0 54.72028 -0 -1.857658 -9.425384 -6.336032 -5.129971 -1.648829 -6.65901 -0 21.92954 -0 -4.068598 -12.2605 17.52861 -1.280738 1.214256 5.942202 -2.180227 9.703855 -3.338242 2.384266 22.6314 4.860094 0.6868273 -15.94501 8.228107 1.643739 -18.73829 10.16013 87.84936 18.82087 -14.74903 -0 0 20.26183 -23.58954 10.3905 11.32323 4.280909 -16.02584 -4.081159 -88.32992 26.42516 18.08286 0 0 -11.82458 -3.127687 1.094809 17.76758
46.60894 106.2989 314.9606 2.241541 -9.731155 6.091056 1.182821 -5.48063 3.956402 -0 50.90489 -0 -2.107802 -8.572364 -7.193113 -5.136665 3.228534 -7.040471 -0 18.55436 -0 -3.972411 -13.53017 16.74487 -1.130578 1.262846 4.546913 -1.728395 9.308744 -4.468599 2.402636 22.84001 5.05014 0.4772056 -15.77123 8.690547 1.378621 -17.64372 9.691879 89.23482 19.05648 -16.33803 -0 0 18.89323 -22.81937 10.40614 10.87688 4.385952 -17.16125 -4.47111 -86.20032 26.71654 14.05115 0 0 -14.60177 -2.352801 1.588703 16.77403
47.64935 106.5382 320.7024 2.244576 -9.291188 7.786473 0.9098012 -11.46072 3.767081 -0 42.50116 -0 -2.707844 -8.095267 -7.5247 -4.937387 7.771591 -7.471501 -0 15.85779 -0 -3.951536 -14.95068 15.9164 -1.27664 1.29999 3.448502 -1.371207 8.745381 -5.66135 2.724742 23.05412 5.025122 0.4458029 -15.62568 9.115107 0.5222595 -17.01498 9.069778 89.9587 19.27111 -17.55622 -0 0 17.90622 -22.35636 10.3322 10.58217 4.715549 -18.12861 -4.801579 -84.07521 26.93466 10.16829 0 0 -17.60168 -1.600199 2.186194 15.63927
48.61997 106.0039 326.2485 2.244934 -8.410778 8.73344 -0.2335467 -15.64934 3.071402 -0 32.17874 -0 -3.407551 -7.797601 -8.154384 -4.838347 11.42462 -7.756397 -0 13.89248 -0 -3.991546 -16.57824 15.19417 -1.468904 1.26279 2.819373 -0.925565 8.14128 -6.592595 2.987481 23.09939 4.96176 0.3952123 -15.66674 9.423803 -0.1987719 -15.96433 8.388763 90.81639 19.4035 -19.1435 -0 0 16.41875 -21.81978 10.19598 10.06404 5.176366 -19.31663 -4.889917 -81.96658 27.04957 6.279327 0 0 -20.92994 -0.7816358 2.923699 14.35503
49.78444 104.7443 332.1047 2.709747 -7.67806 9.586194 -1.222567 -19.12286 2.413665 -0 21.79637 -0 -4.380706 -7.909478 -8.907345 -5.294659 14.86395 -7.752145 -0 13.12091 -0 -4.113659 -18.33926 14.56667 -1.713201 1.174664 2.577043 -0.6980174 7.588471 -7.143697 3.269413 23.08677 4.801113 0.3719288 -15.82001 9.60841 -0.922986 -15.05761 7.919652 91.37294 19.62715 -20.52993 -0 0 14.53159 -21.23436 10.07169 9.366326 5.547392 -20.4888 -4.789213 -80.21975 27.06907 2.843551 0 0 -24.17701 0.05019346 3.70994 13.05091
